<?xml version="1.0" encoding="UTF-8" standalone="no"?>
<!-- Generator: Adobe Illustrator 16.0.0, SVG Export Plug-In . SVG Version: 6.00 Build 0)  -->

<svg
   xmlns:dc="http://purl.org/dc/elements/1.1/"
   xmlns:cc="http://creativecommons.org/ns#"
   xmlns:rdf="http://www.w3.org/1999/02/22-rdf-syntax-ns#"
   xmlns:svg="http://www.w3.org/2000/svg"
   xmlns="http://www.w3.org/2000/svg"
   xmlns:sodipodi="http://sodipodi.sourceforge.net/DTD/sodipodi-0.dtd"
   xmlns:inkscape="http://www.inkscape.org/namespaces/inkscape"
   version="1.1"
   id="Capa_1"
   x="0px"
   y="0px"
   width="423.576px"
   height="423.576px"
   viewBox="0 0 423.576 423.576"
   style="enable-background:new 0 0 423.576 423.576;"
   xml:space="preserve"
   sodipodi:docname="madb4.svg"
   inkscape:version="0.92.4 (f8dce91, 2019-08-02)"><metadata
   id="metadata65"><rdf:RDF><cc:Work
       rdf:about=""><dc:format>image/svg+xml</dc:format><dc:type
         rdf:resource="http://purl.org/dc/dcmitype/StillImage" /><dc:title></dc:title></cc:Work></rdf:RDF></metadata><defs
   id="defs63" /><sodipodi:namedview
   pagecolor="#ffffff"
   bordercolor="#666666"
   borderopacity="1"
   objecttolerance="10"
   gridtolerance="10"
   guidetolerance="10"
   inkscape:pageopacity="0"
   inkscape:pageshadow="2"
   inkscape:window-width="1920"
   inkscape:window-height="1017"
   id="namedview61"
   showgrid="false"
   inkscape:zoom="1.47"
   inkscape:cx="98.86282"
   inkscape:cy="177.04645"
   inkscape:window-x="0"
   inkscape:window-y="27"
   inkscape:window-maximized="1"
   inkscape:current-layer="Capa_1" />
<g
   id="g28">
	<g
   id="g26">
		<g
   id="g4">
			<path
   d="M300,211.787c0,44.15-32.604,80.828-75,87.225v48.924c69.25-6.668,123.576-65.18,123.576-136.147     S294.249,82.308,225,75.641v48.924C267.396,130.959,300,167.636,300,211.787z"
   id="path2"
   style="fill:#b36688;fill-opacity:1" />
		</g>
		<g
   id="g8">
			
		</g>
		<g
   id="g12">
			<path
   d="M273.576,211.787c0-29.535-20.835-54.283-48.576-60.353v120.705C252.741,266.07,273.576,241.322,273.576,211.787z"
   id="path10"
   style="fill:#537c82;fill-opacity:1" />
		</g>
		<g
   id="g16">
			
		</g>
		<g
   id="g20">
			<path
   d="M 198.576,0.424 C 87.928,7.268 0,99.445 0,211.787 0,324.129 87.928,416.306 198.576,423.15 v -48.688 c 0,-374.038 0,-322.693561 0,-374.038 z"
   id="path18"
   inkscape:connector-curvature="0"
   sodipodi:nodetypes="csccc"
   style="fill:#008080;fill-opacity:1" />
		</g>
		<g
   id="g24">
			<path
   d="M423.576,211.787C423.576,99.445,335.648,7.268,225,0.424v48.688c83.84,6.749,150,77.129,150,162.676     s-66.16,155.927-150,162.676v48.688C335.648,416.306,423.576,324.129,423.576,211.787z"
   id="path22"
   style="fill:#ff1d8e;fill-opacity:1" />
		</g>
	</g>
</g>
<g
   id="g30">
</g>
<g
   id="g32">
</g>
<g
   id="g34">
</g>
<g
   id="g36">
</g>
<g
   id="g38">
</g>
<g
   id="g40">
</g>
<g
   id="g42">
</g>
<g
   id="g44">
</g>
<g
   id="g46">
</g>
<g
   id="g48">
</g>
<g
   id="g50">
</g>
<g
   id="g52">
</g>
<g
   id="g54">
</g>
<g
   id="g56">
</g>
<g
   id="g58">
</g>
</svg>